Simulation
nRows=28
nColumns=15
endheader
time  TH_x TH_y TH_z SC_y  SC_z  SC_x  AC_y  AC_z  AC_x  GH_y  GH_z  GH_yy  EL_x  PS_y
5.745  0.000000  0.000000  0.000000  -51.69140560374939  17.25814898712163  16.083864498060002  47.25267636963434  12.940564189328837  13.906772340006462  33.96374552756741  55.228746072297014  -43.91733813409564  18.583579966426154  120.000000
5.80245  0.000000  0.000000  0.000000  -50.5068684415191  16.66001341837806  13.563151862424501  46.79202201043127  12.538640170266516  12.938441349369981  35.067052672063966  54.36191497738233  -44.547296475511715  18.87639585856555  120.000000
5.8599  0.000000  0.000000  0.000000  -49.1045205048434  15.894873630796647  10.474066235696256  46.1878022922417  12.08053255854179  12.02436159837276  36.294012904166095  53.068367974096994  -44.99084643219272  19.26978491979505  120.000000
5.91735  0.000000  0.000000  0.000000  -47.52632790215206  14.92343976934637  6.942725596486539  45.42990339521749  11.625781917431347  11.237624857962546  37.531384278244246  51.32341569384743  -45.16746570199396  19.674308870719315  120.000000
5.9748  0.000000  0.000000  0.000000  -45.8148800156373  13.730921719323192  3.1236344016127813  44.52068156341243  11.26134173045539  10.634703760652636  38.68047779825166  49.11322596664634  -45.04010558120677  19.98101733545659  120.000000
6.03225  0.000000  0.000000  0.000000  -44.00945683695447  12.330910448693317  -0.8141464206646487  43.48884837832036  11.08697198441753  10.251329453115346  39.67756027476435  46.4453263092375  -44.631523502998824  20.09532867945597  120.000000
6.089700000000001  0.000000  0.000000  0.000000  -42.151157799649695  10.761596552435932  -4.702582292804408  42.39118050758921  11.19529883810562  10.102471944419072  40.51015735739682  43.360423408872656  -44.02457374644191  19.965227781654185  120.000000
6.14715  0.000000  0.000000  0.000000  -40.29728180596189  9.080989781052196  -8.389322213515465  41.30114426934427  11.649575526657868  10.185788488994449  41.22511213001339  39.943123321095726  -43.34843275341729  19.589948416030182  120.000000
6.2046  0.000000  0.000000  0.000000  -38.528820907228855  7.364276459664998  -11.754494953325208  40.297152960021975  12.465151954541806  10.48456017483677  41.9326849969495  36.32497558341017  -42.76242600871893  19.007137673176572  120.000000
6.26205  0.000000  0.000000  0.000000  -36.94234842012764  5.699735523033804  -14.724130838333455  39.45041800003788  13.601343111383567  10.969164647699467  42.807449372668465  32.66731176518631  -42.44248606842845  18.27690499521261  120.000000
6.3195  0.000000  0.000000  0.000000  -35.6298751614122  4.175343719588744  -17.268191440138455  38.80573185991702  14.969195450467  11.60291028739667  44.07275158093682  29.129208303379922  -42.565880833685846  17.473355749493876  120.000000
6.37695  0.000000  0.000000  0.000000  -34.652529560989585  2.86783395420387  -19.38834798229371  38.37676293866299  16.454476920128652  12.34517626486997  45.97121414035225  25.841057821126213  -43.296234358203336  16.680148402220315  120.000000
6.4344  0.000000  0.000000  0.000000  -34.02402090754585  1.8313744779957997  -21.10285443502827  38.1513243143535  17.94442010470244  13.152856913409792  48.72189466828883  22.893100306695185  -44.76630517017543  15.983343730265553  120.000000
6.49185  0.000000  0.000000  0.000000  -33.71373834644891  1.0891662591749127  -22.4352293265895  38.09541997028523  19.345925478546647  13.984571891874976  52.468104432057174  20.3366550876976  -47.05580074243498  15.45825507945493  120.000000
6.549300000000001  0.000000  0.000000  0.000000  -33.66200865183293  0.6342987851309121  -23.412222640244963  38.162356549431806  20.59362902644958  14.801076340782405  57.233598635674625  18.192005554605508  -50.1708349679869  15.154065687499694  120.000000
6.60675  0.000000  0.000000  0.000000  -33.797113512761  0.4329842062263057  -24.06714187264932  38.30489807496749  21.65238180379798  15.561557820451851  62.89784533931987  16.45723633401414  -54.02782834264602  15.085044312125063  120.000000
6.6642  0.000000  0.000000  0.000000  -34.049109785760365  0.43510048298235215  -24.44001597546518  38.48005068984775  22.511816365212134  16.226953259415655  69.19828405832902  15.10934374679048  -58.44416754456577  15.234396797252233  120.000000
6.72165  0.000000  0.000000  0.000000  -34.35929597926428  0.5839363823783047  -24.574972842953667  38.64903945669079  23.17756159528864  16.766350847808944  75.76864560716542  14.101224181318615  -63.1516929128587  15.56313172660841  120.000000
6.7791  0.000000  0.000000  0.000000  -34.68237041150769  0.8218013711038274  -24.517542707516352  38.78543847620386  23.663405911214287  17.158428293061935  82.22881419660047  13.366435737130642  -67.85838940019168  16.013188635399732  120.000000
6.83655  0.000000  0.000000  0.000000  -34.9832089468723  1.0943171958655549  -24.310237784106857  38.881511149240986  23.984418510943453  17.392383309389484  88.28470573770187  12.831956122662234  -72.32744430899061  16.50801203196988  120.000000
6.894  0.000000  0.000000  0.000000  -35.23668263934076  1.359091653163483  -23.989631693737277  38.947179691310275  24.155006011266757  17.468322980721542  93.77350042067866  12.433448138957582  -76.4198887418632  16.96058779807121  120.000000
6.95145  0.000000  0.000000  0.000000  -35.42579179334478  1.5910671824816636  -23.585350262977634  39.00409014444608  24.192010973016632  17.394666226706466  98.6433509686956  12.122689140323292  -80.08545886667645  17.291955410382112  120.000000
7.008900000000001  0.000000  0.000000  0.000000  -35.544281155256556  1.778239094315169  -23.11857515298101  39.07285770993774  24.114867639606413  17.18775029433565  102.90998053800531  11.866170843202013  -83.33401968961944  17.456914225685345  120.000000
7.06635  0.000000  0.000000  0.000000  -35.602263434114334  1.9165107460849953  -22.601674177387853  39.161191005378576  23.942767759973645  16.87235029648173  106.62062359951229  11.640312299108091  -86.21119101173981  17.46445839352003  120.000000
7.1238  0.000000  0.000000  0.000000  -35.62350460546347  2.007752886362061  -22.040728590480843  39.26423700480852  23.694849937072796  16.475538772081077  109.82899006015808  11.428491716867445  -88.77706537425183  17.37469460356287  120.000000
7.18125  0.000000  0.000000  0.000000  -35.63325326523749  2.0617598978900706  -21.439553236527242  39.37849065575344  23.392882757757963  16.017222508473914  112.57572454008924  11.223098487123472  -91.0820134095021  17.27278610664181  120.000000
7.2387  0.000000  0.000000  0.000000  -35.65064810541194  2.0924302671799513  -20.801338434892894  39.5084647499565  23.05875292985455  15.509684498327529  114.87716509548007  11.02406696769111  -93.14658956578063  17.233889493554564  120.000000
7.29615  0.000000  0.000000  0.000000  -35.6854929195222  2.1109405321998254  -20.128275527577895  39.65820996993859  22.70543609855595  14.967594315237427  116.75567478550435  10.82874475069745  -94.98035411806414  17.295010480483025  120.000000
